<?xml version="1.0" encoding="utf-8"?>
<svg viewBox="348.549 172.019 107.4835 105.678" width="107.4835" height="105.678" xmlns="http://www.w3.org/2000/svg">
  <path d="M 434.043 182.673 C 433.225 181.394 431.934 180.489 430.454 180.157 C 424.256 178.308 418.059 176.568 411.866 174.707 L 404.466 172.564 L 403.162 172.237 L 402.411 172.019 L 401.866 172.128 C 401.648 172.237 401.447 172.237 401.212 172.346 L 394.147 174.304 C 386.973 176.262 379.581 178.216 372.298 180.174 C 371.158 180.489 370.206 181.281 369.69 182.35 L 365.669 188.111 C 360.344 195.612 354.906 203.441 349.472 211.172 C 348.617 212.325 348.336 213.805 348.713 215.193 C 350.889 226.933 352.952 238.782 355.128 250.523 C 355.317 251.63 355.895 252.632 356.759 253.349 C 366.218 261.068 375.673 268.892 385.024 276.72 C 385.715 277.34 386.608 277.688 387.539 277.697 L 388.084 277.697 C 400.042 276.284 411.984 274.871 423.724 273.567 C 424.894 273.5 426.005 273.038 426.877 272.263 C 432.42 267.37 439.812 260.85 447.313 254.326 C 448.395 253.416 449.091 252.137 449.271 250.736 C 451.661 238.019 454.055 225.516 455.904 215.935 C 456.236 214.531 455.917 213.055 455.037 211.914 C 448.177 202.782 441.435 193.218 434.043 182.673 Z M 406.432 272.682 L 405.565 272.791 C 403.934 273.009 402.411 273.21 400.78 273.55 C 399.149 273.768 397.426 273.969 395.778 274.204 C 393.061 274.531 390.235 274.963 387.518 275.399 C 387.057 275.546 386.554 275.416 386.214 275.072 C 382.86 271.81 379.476 268.657 375.996 265.399 L 373.279 262.791 L 406.432 272.682 Z M 403.388 174.535 C 411.774 176.925 420.131 179.428 428.391 181.927 L 423.498 183.449 C 416.105 185.839 408.822 188.233 401.539 190.514 C 400.906 190.732 400.214 190.732 399.581 190.514 C 395.124 188.883 390.667 187.361 386.21 185.73 C 382.407 184.317 378.491 183.013 374.688 181.6 L 379.145 180.405 C 386.755 178.338 394.24 176.384 401.648 174.317 C 402.24 174.22 402.843 174.296 403.388 174.535 Z M 437.632 259.311 C 437.087 259.73 436.655 260.179 436.11 260.615 C 433.888 262.393 431.787 264.317 429.82 266.376 C 426.475 270.183 421.489 272.129 416.449 271.592 L 437.632 259.311 Z M 399.581 193.977 C 399.69 194.086 399.799 194.195 399.69 194.736 C 399.707 194.925 399.669 195.113 399.581 195.281 C 399.162 208.761 399.162 222.241 399.162 235.831 L 399.162 236.917 C 398.919 236.871 398.692 236.757 398.508 236.59 C 390.898 232.242 383.288 227.785 375.678 223.436 L 363.937 216.698 L 373.938 210.283 C 382.089 205.067 390.244 199.847 398.504 194.631 C 398.613 194.522 398.831 194.413 398.923 194.304 C 399.367 193.868 399.476 193.868 399.581 193.977 Z M 401.321 236.808 C 401.103 224.522 401.43 212.564 401.648 199.956 L 401.757 193.868 L 437.632 217.239 L 401.321 236.808 Z M 363.711 214.304 C 363.971 212.606 364.369 210.933 364.906 209.302 C 365.141 208.627 365.321 207.935 365.451 207.235 C 366.428 203.432 367.409 199.734 368.495 195.914 C 369.581 192.002 370.671 188.086 371.648 184.065 C 371.757 183.646 371.866 183.088 372.067 182.979 C 372.361 182.921 372.667 182.958 372.935 183.088 C 378.587 185.155 384.348 187.218 389.896 189.176 C 392.411 190.044 395.007 191.025 397.506 191.893 C 397.699 191.935 397.883 192.011 398.051 192.111 L 363.711 214.304 Z M 363.166 218.761 L 369.455 222.351 C 374.906 225.395 380.109 228.439 385.325 231.374 C 386.629 232.133 387.933 232.896 389.346 233.655 C 391.954 235.177 394.797 236.808 397.497 238.33 C 397.728 238.447 397.946 238.59 398.152 238.749 C 398.013 238.938 397.824 239.084 397.606 239.168 C 388.583 245.458 379.669 251.776 370.646 258.082 C 370.466 258.25 370.235 258.363 369.992 258.409 C 369.883 258.128 369.812 257.839 369.774 257.541 C 368.47 249.931 367.166 242.321 365.862 234.606 L 364.558 226.778 C 364.231 224.82 363.904 222.866 363.581 220.799 L 363.166 218.761 Z M 372.625 259.311 C 372.734 259.202 372.952 259.093 373.044 258.984 C 375.87 256.917 378.805 254.963 381.741 252.896 C 387.065 249.093 392.613 245.286 398.047 241.374 C 398.374 241.156 399.133 240.615 399.351 240.72 C 399.46 240.72 399.678 240.938 400.005 241.915 C 402.395 249.198 404.789 256.481 407.397 264.091 L 409.787 271.374 L 371.761 260.07 C 371.996 259.76 372.29 259.504 372.625 259.311 Z M 402.193 238.766 C 410.671 234.2 419.045 229.634 427.523 225.068 L 438.718 218.979 L 438.936 218.979 L 443.829 240.611 L 444.483 243.546 C 445.028 245.827 445.46 248.221 446.114 250.502 C 446.332 251.37 446.223 251.697 445.355 252.242 C 433.397 259.089 422.852 265.286 413.07 271.047 C 412.835 271.189 412.579 271.298 412.311 271.374 C 412.135 271.101 411.996 270.812 411.892 270.506 C 408.412 259.852 404.827 249.307 401.783 240.393 C 401.43 239.416 401.321 239.198 402.193 238.766 Z M 441.326 219.399 C 441.213 219.047 441.213 218.665 441.326 218.313 C 441.611 218.086 441.946 217.944 442.303 217.893 C 445.347 217.239 448.391 216.589 451.871 215.613 C 452.19 215.533 452.521 215.495 452.848 215.504 C 452.965 215.495 453.083 215.537 453.175 215.613 C 453.175 215.613 453.393 215.94 453.175 216.917 C 451.871 223.441 450.659 229.961 449.372 236.376 L 447.414 246.376 L 445.347 236.917 C 445.02 235.286 444.588 233.764 444.261 232.133 C 443.284 228.003 442.303 223.655 441.326 219.399 Z M 440.567 215.81 C 440.458 215.701 440.458 215.39 440.349 215.051 C 440.378 214.862 440.34 214.669 440.24 214.506 C 438.718 207.768 437.305 201.025 435.892 194.287 L 435.024 190.375 C 434.806 189.29 434.605 188.095 434.265 187.021 L 452.743 213.017 L 449.699 213.776 C 446.764 214.535 443.829 215.189 441.003 215.843 C 440.785 215.935 440.567 215.935 440.567 215.826 L 440.567 215.81 Z M 403.17 192.22 L 410.126 189.939 C 416.214 187.981 421.976 186.136 427.846 184.178 C 429.477 183.633 430.563 183.31 430.89 183.524 C 431.435 184.375 431.77 185.344 431.867 186.35 C 433.825 195.373 435.779 204.506 437.737 213.529 C 437.833 213.919 437.871 214.321 437.846 214.724 L 403.17 192.22 Z M 363.929 204.506 C 363.061 207.659 362.298 210.795 361.413 213.965 C 361.342 214.434 361.153 214.883 360.868 215.269 C 360.508 215.386 360.114 215.348 359.782 215.16 C 357.682 214.392 355.539 213.738 353.367 213.202 C 352.822 213.093 352.281 212.875 351.736 212.782 C 351.489 212.686 351.237 212.615 350.977 212.564 C 351.049 212.329 351.158 212.107 351.304 211.91 L 365.002 192.342 L 368.592 187.231 L 363.929 204.506 Z M 350.449 214.615 L 350.558 214.615 C 350.86 214.615 351.158 214.69 351.426 214.833 C 353.057 215.378 354.78 215.81 356.319 216.246 C 357.296 216.573 358.386 216.791 359.363 217.114 C 360.34 217.436 360.776 217.533 360.885 218.527 C 362.516 228.309 364.239 238.313 365.887 247.877 L 367.627 258.095 L 357.191 251.139 C 356.864 250.921 356.772 250.594 356.772 249.944 C 356.784 249.793 356.747 249.646 356.663 249.525 L 356.445 248.112 C 354.487 237.458 352.533 226.481 350.575 215.717 C 350.512 215.357 350.47 214.996 350.449 214.631 L 350.449 214.615 Z" fill="#f1f1f1" style="" transform="matrix(1, 0, 0, 1, 7.105427357601002e-15, 8.881784197001252e-16)"/>
</svg>