<svg xmlns="http://www.w3.org/2000/svg" width="88" height="35" viewBox="0 0 88 35" fill="none">
  <path d="M85.2826 29.7777L84.3736 28.8372C83.2772 29.8125 81.7111 30.0522 80.3739 29.4495C79.0366 28.8468 78.1772 27.514 78.1791 26.0454V14.6021H81.2808V10.329H78.1791V0.104004H73.9141V26.0492C73.9154 27.3492 74.2341 28.6292 74.8423 29.7777C75.5959 31.2006 76.7582 32.3645 78.1791 33.1193C80.5125 34.3553 83.3054 34.3553 85.6388 33.1193C86.2571 32.7886 86.8299 32.3789 87.3427 31.9004L85.6388 30.1459L85.2826 29.7777Z" fill="#180F46"/>
  <path fill-rule="evenodd" clip-rule="evenodd" d="M36.7247 13.9632H32.4609V9.6933H36.7247V13.9632ZM32.4609 34.0463V15.9012H36.7247V34.0463H32.4609Z" fill="#180F46"/>
  <path d="M40.8281 0.104004V12.0829V26.0601V34.0463H45.0919V32.3103V26.0601V12.0829V5.83332V0.104004H40.8281Z" fill="#180F46"/>
  <path fill-rule="evenodd" clip-rule="evenodd" d="M53.4597 13.7669H49.1953V9.49698H53.4597V13.7669ZM49.1953 34.0463V15.9012H53.4591V34.0463H49.1953Z" fill="#180F46"/>
  <path d="M71.8408 3.24747C72.5139 3.24751 73.149 3.41551 73.7061 3.71133C74.4155 4.08777 74.9986 4.67159 75.375 5.38223C75.669 5.93896 75.8368 6.57281 75.8379 7.24551V7.25333C75.8368 7.92614 75.6691 8.56107 75.375 9.11758C74.9986 9.82805 74.4155 10.4117 73.7061 10.7885C73.149 11.084 72.5139 11.2523 71.8408 11.2523C71.1676 11.2523 70.5329 11.0836 69.9756 10.7875C69.2665 10.4108 68.6832 9.82797 68.3076 9.11758C68.0122 8.55998 67.8438 7.92384 67.8438 7.24942C67.8438 6.57518 68.0123 5.93999 68.3076 5.38223C68.6832 4.67157 69.2665 4.08777 69.9756 3.71133C70.5329 3.41549 71.1676 3.24747 71.8408 3.24747ZM71.8408 5.38223C70.8124 5.38223 69.9758 6.21926 69.9756 7.24942C69.9756 8.27924 70.8123 9.11758 71.8408 9.11758C72.8686 9.11746 73.7045 8.28079 73.7061 7.25235V7.24747C73.7046 6.21837 72.8687 5.38236 71.8408 5.38223Z" fill="#180F46"/>
  <path d="M20.6873 34.0463V34.036C21.8784 33.9899 23.0438 33.6759 24.0972 33.1174C25.5183 32.3632 26.6807 31.1994 27.434 29.7764C28.0426 28.6283 28.3609 27.3484 28.361 26.0486V9.6933H24.0972V26.0454C24.096 28.1084 22.4249 29.7799 20.3648 29.7786C18.3047 29.7774 16.6357 28.1039 16.6369 26.0409C16.6369 26.0377 16.6369 26.0357 16.6369 26.0325V9.6933H12.3712V26.0454C12.3712 26.1185 12.3648 26.1891 12.361 26.2616C12.3329 26.7371 12.2138 27.2027 12.0099 27.6331V27.6395C11.9619 27.7422 11.9087 27.8416 11.8517 27.9378L11.8415 27.9539C11.7864 28.0469 11.7281 28.1354 11.664 28.2239L11.6441 28.2502C11.5833 28.3336 11.5192 28.4138 11.452 28.4921C11.4417 28.5049 11.4302 28.5152 11.4187 28.5287C11.3546 28.6018 11.2905 28.6717 11.2169 28.7391C11.2002 28.7551 11.1829 28.7699 11.1656 28.7853C11.1016 28.8494 11.0298 28.9084 10.9587 28.9655C10.9357 28.9835 10.912 29.0002 10.8883 29.0175C10.8197 29.0701 10.7505 29.1208 10.6794 29.1676C10.6487 29.1868 10.6154 29.2048 10.5859 29.2241C10.518 29.2664 10.4501 29.3068 10.3809 29.3447C10.3406 29.3652 10.3002 29.3825 10.2611 29.4018C10.1971 29.4338 10.133 29.4659 10.0632 29.4935C10.0151 29.5127 9.96517 29.5301 9.91712 29.5474C9.85306 29.5711 9.79285 29.5942 9.72943 29.6115C9.66601 29.6288 9.61028 29.6423 9.55198 29.6584C9.49369 29.6744 9.43796 29.6891 9.38031 29.7013C9.30792 29.7154 9.23361 29.7238 9.15994 29.7347C9.1119 29.7405 9.06578 29.7501 9.01837 29.7559C8.89858 29.7661 8.77623 29.7732 8.65324 29.7738H8.63594C8.51167 29.7738 8.39124 29.7661 8.27145 29.7559C8.2234 29.7501 8.17792 29.7405 8.13052 29.7347C8.05557 29.7238 7.9819 29.7154 7.90887 29.7013C7.85186 29.6891 7.79613 29.6725 7.73976 29.6584C7.68339 29.6442 7.61933 29.6295 7.55911 29.6115C7.4989 29.5936 7.43612 29.5692 7.37462 29.5474C7.32466 29.5301 7.27469 29.5127 7.22601 29.4922C7.15874 29.4659 7.09405 29.4332 7.02999 29.4024C6.98963 29.3825 6.94735 29.3645 6.90827 29.3427C6.83909 29.3062 6.77183 29.2664 6.70393 29.2247C6.67254 29.2054 6.63987 29.1868 6.60912 29.1663C6.53865 29.1201 6.46947 29.0694 6.40285 29.0181C6.37787 29.0008 6.35352 28.9835 6.32982 28.9642C6.25872 28.9078 6.18953 28.8462 6.12291 28.7853L6.07231 28.7384C6.00184 28.6711 5.93394 28.6011 5.86924 28.5274C5.85899 28.5145 5.84682 28.5043 5.83593 28.4914C5.77187 28.4132 5.70781 28.3324 5.64375 28.249C5.63863 28.24 5.63158 28.2323 5.62646 28.2239C5.5624 28.1348 5.50218 28.045 5.44581 27.9513C5.44414 27.9464 5.44153 27.9418 5.43812 27.9378C5.38111 27.841 5.3273 27.7402 5.27862 27.637C5.07489 27.2062 4.95613 26.74 4.92885 26.2641C4.92437 26.1916 4.91668 26.1211 4.91668 26.0479V9.6933H0.648438V26.0518C0.64921 27.3514 0.967203 28.6312 1.57473 29.7796C1.66249 29.9438 1.75538 30.1004 1.85403 30.2601C1.90912 30.3499 1.96997 30.4359 2.02891 30.5238C2.06734 30.5802 2.10514 30.6379 2.14613 30.6944C2.23133 30.8137 2.32166 30.9298 2.4139 31.0447L2.45362 31.0953C2.55739 31.2236 2.66501 31.3455 2.77391 31.4655C2.77391 31.4655 2.77391 31.4655 2.77776 31.47C2.7816 31.4745 2.77776 31.4732 2.7816 31.4745C2.92701 31.6316 3.07947 31.7843 3.2377 31.9293L3.27101 31.9607C3.41514 32.089 3.56504 32.2173 3.71942 32.3386C3.74633 32.3604 3.77323 32.3835 3.80014 32.4027C3.93914 32.5092 4.082 32.6093 4.22805 32.7068C4.26969 32.7338 4.31004 32.7645 4.35104 32.7902C4.52016 32.8986 4.69376 33.0013 4.87184 33.0962L4.91028 33.1193C4.94935 33.1405 4.98971 33.1584 5.02879 33.1783C5.12295 33.2264 5.21648 33.2739 5.31321 33.3182C5.38559 33.3515 5.46118 33.3823 5.53485 33.4131C5.60852 33.4439 5.66297 33.4683 5.72703 33.4946C5.81799 33.5292 5.90896 33.5587 6.00056 33.594C6.04988 33.6107 6.09729 33.6299 6.14661 33.6453C6.25167 33.68 6.35801 33.7095 6.46691 33.7416C6.5015 33.7505 6.53673 33.7621 6.57325 33.7711C6.69047 33.8031 6.81026 33.8352 6.93005 33.8583L7.00372 33.8744C7.13184 33.9007 7.25996 33.925 7.39256 33.9456L7.43868 33.9526C7.57705 33.9744 7.7167 33.9918 7.85699 34.0059H7.88005C8.02674 34.02 8.17408 34.0322 8.32013 34.036H8.32462V34.0463H8.96521V34.036H8.96969C9.11703 34.0322 9.26308 34.02 9.40849 34.0059H9.43284C9.57312 33.9918 9.71213 33.9744 9.84986 33.9526L9.8979 33.9456C10.026 33.925 10.158 33.9007 10.2861 33.8744L10.3604 33.8583C10.4804 33.8322 10.5993 33.8031 10.7172 33.7711C10.7524 33.7621 10.7877 33.7505 10.8229 33.7416C10.9299 33.7108 11.0369 33.6774 11.1432 33.6453C11.1913 33.6299 11.2387 33.6107 11.2873 33.5953C11.3796 33.5619 11.4718 33.5311 11.5622 33.4939C11.6262 33.4683 11.6903 33.4413 11.7511 33.4137C11.8267 33.3817 11.9023 33.3496 11.9766 33.3175C12.0714 33.2739 12.1637 33.2264 12.2566 33.1796C12.2976 33.1591 12.3379 33.1411 12.377 33.1193C12.3911 33.1122 12.4032 33.1033 12.4167 33.0962C12.5948 33.0013 12.7677 32.8986 12.9375 32.7902C12.9791 32.7645 13.0176 32.735 13.0586 32.7074C13.204 32.6099 13.3488 32.5092 13.4884 32.4014C13.5153 32.3822 13.5403 32.3598 13.5685 32.3373C13.7222 32.2167 13.8717 32.0901 14.0169 31.9575L14.0489 31.928C14.2078 31.7817 14.3607 31.6286 14.5076 31.4687C16.0144 33.1134 18.1414 34.0493 20.3703 34.0482L20.6873 34.0463Z" fill="#180F46"/>
  <path d="M63.9238 11.2021C65.2704 11.2022 66.541 11.5385 67.6543 12.1299C69.0725 12.8829 70.2384 14.0499 70.9912 15.4707C71.5793 16.5843 71.9164 17.8525 71.918 19.1982C71.918 19.2006 71.9189 19.2048 71.9189 19.207C71.9189 19.2102 71.918 19.2127 71.918 19.2148C71.9163 20.5601 71.5792 21.8288 70.9912 22.9424C70.2383 24.3623 69.0727 25.531 67.6543 26.2841C66.541 26.8758 65.2704 27.2128 63.9238 27.2129C62.5775 27.2129 61.308 26.8756 60.1934 26.2832C58.7751 25.53 57.6089 24.3623 56.8574 22.9424C56.2666 21.8267 55.9297 20.5561 55.9297 19.207C55.9297 17.8582 56.2665 16.5862 56.8574 15.4707C57.6089 14.0498 58.7753 12.8829 60.1934 12.1299C61.308 11.5385 62.5775 11.2021 63.9238 11.2021ZM63.9238 15.4707C61.8666 15.4707 60.1934 17.1466 60.1934 19.207C60.1935 21.2668 61.8667 22.9424 63.9238 22.9424C65.9798 22.9422 67.6516 21.2685 67.6543 19.2109V19.2031C67.6516 17.1444 65.9798 15.4709 63.9238 15.4707Z" fill="#180F46"/>
</svg>